<svg width="198" height="198" viewBox="0 0 198 198" fill="none" xmlns="http://www.w3.org/2000/svg">
<path d="M132.241 153.92C145.971 145.971 153.92 136.938 159.339 119.956" stroke="#A013AA" stroke-width="4" stroke-linecap="round"/>
<path d="M103.697 51.6679C95.7481 49.8614 82.0182 53.4745 75.8759 59.2555" stroke="#A013AA" stroke-width="4" stroke-linecap="round"/>
<path d="M61.0621 25.6533C47.3322 33.6022 33.241 46.9708 23.8468 65.7592" stroke="#A013AA" stroke-width="4" stroke-linecap="round"/>
<circle cx="99" cy="99" r="97" stroke="#A013AA" stroke-width="4"/>
<path d="M115.624 46.9701L107.314 74.0686L123.573 89.9665L189.332 63.5905L176.686 39.0212L150.671 15.5358L128.27 6.86426L115.624 46.9701Z" fill="#A013AA"/>
<path d="M52.7552 117.788L72.9888 109.839L91.4158 124.653L70.0983 192.218L48.7808 183.908L24.5727 162.952L8.67493 134.77L52.7552 117.788Z" fill="#A013AA"/>
<circle cx="99.0037" cy="98.9996" r="28.9051" fill="#8E1197"/>
<circle cx="99.3648" cy="99.3608" r="4.69708" fill="#A013AA"/>
</svg>
