<?xml version="1.0" encoding="iso-8859-1"?>
<!-- Generator: Adobe Illustrator 19.0.0, SVG Export Plug-In . SVG Version: 6.00 Build 0)  -->
<svg version="1.1" id="Capa_1" xmlns="http://www.w3.org/2000/svg" xmlns:xlink="http://www.w3.org/1999/xlink" x="0px" y="0px"
	 viewBox="0 0 512 512" style="enable-background:new 0 0 512 512;" xml:space="preserve">
<g>
	<g>
		<path style="fill:#14803a;" d="M256,0C114.837,0,0,114.837,0,256s114.837,256,256,256s256-114.837,256-256S397.163,0,256,0z M64,256
			c0,5.888-4.779,10.667-10.667,10.667S42.667,261.888,42.667,256c0-117.632,95.701-213.333,213.333-213.333
			c5.888,0,10.667,4.779,10.667,10.667S261.888,64,256,64C150.144,64,64,150.144,64,256z M256,362.667
			c-58.816,0-106.667-47.851-106.667-106.667S197.184,149.333,256,149.333S362.667,197.184,362.667,256S314.816,362.667,256,362.667
			z"/>
	</g>
</g>
<g>
	<g>
		<circle style="fill:#14803a;" cx="256" cy="256" r="21.333"/>
	</g>
</g>
<g>
</g>
<g>
</g>
<g>
</g>
<g>
</g>
<g>
</g>
<g>
</g>
<g>
</g>
<g>
</g>
<g>
</g>
<g>
</g>
<g>
</g>
<g>
</g>
<g>
</g>
<g>
</g>
<g>
</g>
</svg>
